<?xml version="1.0" encoding="utf-8"?>
<!-- Generator: Adobe Illustrator 19.0.0, SVG Export Plug-In . SVG Version: 6.00 Build 0)  -->
<svg version="1.1" id="Layer_1" xmlns="http://www.w3.org/2000/svg" xmlns:xlink="http://www.w3.org/1999/xlink" x="0px" y="0px"
	 viewBox="0 0 1920 1080" style="enable-background:new 0 0 1920 1080;" xml:space="preserve">
<style type="text/css">
	.st0{fill:url(#Background_2_);}
	.st1{fill:url(#Background_3_);}
	.st2{fill:#547DBF;}
	.st3{fill:#010101;}
	.st4{opacity:0.53;fill:#010101;}
	.st5{opacity:0.6;fill:#010101;}
	.st6{fill:#547EBF;}
	.st7{fill:url(#XMLID_268_);}
</style>
<linearGradient id="Background_2_" gradientUnits="userSpaceOnUse" x1="1873.4056" y1="-2109.0356" x2="65.4056" y2="-1141.0358">
	<stop  offset="8.271665e-007" style="stop-color:#FDBA33;stop-opacity:0.8"/>
	<stop  offset="0.4678" style="stop-color:#F9A127;stop-opacity:0.8936"/>
	<stop  offset="1" style="stop-color:#F6881F"/>
</linearGradient>
<rect id="Background" y="-2160" class="st0" width="1920" height="1080"/>
<linearGradient id="Background_3_" gradientUnits="userSpaceOnUse" x1="1850.8257" y1="-75.003" x2="76.8257" y2="-1001.0031">
	<stop  offset="8.271665e-007" style="stop-color:#FDBA33;stop-opacity:0.8"/>
	<stop  offset="0.4678" style="stop-color:#F9A127;stop-opacity:0.8936"/>
	<stop  offset="1" style="stop-color:#F6881F"/>
</linearGradient>
<rect id="Background_1_" y="-1080" class="st1" width="1920" height="1080"/>
<path id="XMLID_194_" class="st2" d="M855.8-1155c11.7,22.4,18.3,47.9,18.3,75H0v-1080h1393c-691.8,40.1-1221.6,266.6-1221.6,540
	c0,157.6,176,299.6,457.6,399.3C698.5-1196.1,774.5-1174.1,855.8-1155z"/>
<g id="Hanging">
	<path id="XMLID_359_" class="st3" d="M1646-1887.2h-10.6c-1.5,0-2.8,1.2-2.8,2.7v11.2h-28.6v-28h19.6c1.5,0,2.8-1.2,2.8-2.7v-8.8
		c0-1.5-1.3-2.7-2.8-2.7h-19.6v-14c0-7.1,5.7-12.6,14.4-12.6c5.5,0,10.7,2.5,13.5,4.2c1.2,0.7,2.8,0.5,3.7-0.6l6.7-7.8
		c1-1.2,0.8-2.9-0.5-3.8c-3.8-2.7-12.4-7.7-23.7-7.7c-19.1,0-32.7,11.7-32.7,27.8v14.6h-6.5c-1.5,0-2.8,1.2-2.8,2.7v8.8
		c0,1.5,1.3,2.7,2.8,2.7h6.5v28.3h-8.4c-1.5,0-2.8,1.2-2.8,2.7v8.8c0,1.5,1.3,2.7,2.8,2.7h69.1c1.5,0,2.8-1.2,2.8-2.7v-23
		C1648.8-1886.1,1647.5-1887.2,1646-1887.2z"/>
	<path id="XMLID_177_" class="st4" d="M1639.3-1880.6h-10.6c-1.5,0-2.8,1.2-2.8,2.7v11.2h-28.6v-28h19.6c1.5,0,2.8-1.2,2.8-2.7v-8.8
		c0-1.5-1.3-2.7-2.8-2.7h-19.6v-14c0-7.1,5.7-12.6,14.4-12.6c5.5,0,10.7,2.5,13.5,4.2c1.2,0.7,2.8,0.5,3.7-0.6l6.7-7.8
		c1-1.2,0.8-2.9-0.5-3.8c-3.8-2.7-12.4-7.7-23.7-7.7c-19.1,0-32.7,11.7-32.7,27.8v14.6h-6.5c-1.5,0-2.8,1.2-2.8,2.7v8.8
		c0,1.5,1.3,2.7,2.8,2.7h6.5v28.3h-8.4c-1.5,0-2.8,1.2-2.8,2.7v8.8c0,1.5,1.3,2.7,2.8,2.7h69.1c1.5,0,2.8-1.2,2.8-2.7v-23
		C1642.1-1879.4,1640.8-1880.6,1639.3-1880.6z"/>
	<path id="XMLID_383_" class="st3" d="M1737.1-1998.1c-0.3-1.5-1.8-2.4-3.2-2.1c-2.4,0.5-6.1,1.2-10.2,1.2
		c-12.7,0-22.8-7.8-27.2-19.1h25.4c1.3,0,2.3-0.9,2.6-2.1l1.4-6.3c0.4-1.7-0.9-3.3-2.6-3.3h-30c-0.3-3.2-0.3-6.3,0-9.5h32.8
		c1.3,0,2.4-0.9,2.6-2.1l1.5-6.7c0.4-1.7-0.9-3.3-2.6-3.3h-30.9c4.6-10.1,14-16.8,26.3-16.8c3.2,0,6.4,0.5,8.5,0.9
		c1.4,0.3,2.8-0.6,3.1-1.9l2.7-9.9c0.4-1.5-0.6-3-2.1-3.3c-2.7-0.5-7.1-1.2-11.8-1.2c-21.7,0-39.3,13.5-45.8,32.2h-7.4
		c-1.5,0-2.7,1.2-2.7,2.7v6.7c0,1.5,1.2,2.7,2.7,2.7h4.8c-0.2,3-0.3,6.6,0,9.5h-4.8c-1.5,0-2.7,1.2-2.7,2.7v6.3
		c0,1.5,1.2,2.7,2.7,2.7h6.7c5.6,20.2,23.1,34.8,46.4,34.8c5.9,0,10.9-1,13.7-1.7c1.4-0.4,2.2-1.7,2-3.1L1737.1-1998.1z"/>
	<path id="XMLID_394_" class="st5" d="M1730.7-1991.7c-0.3-1.5-1.8-2.4-3.2-2.1c-2.4,0.5-6.1,1.2-10.2,1.2
		c-12.7,0-22.8-7.8-27.2-19.1h25.4c1.3,0,2.3-0.9,2.6-2.1l1.4-6.3c0.4-1.7-0.9-3.3-2.6-3.3h-30c-0.3-3.2-0.3-6.3,0-9.5h32.8
		c1.3,0,2.4-0.9,2.6-2.1l1.5-6.7c0.4-1.7-0.9-3.3-2.6-3.3h-30.9c4.6-10.1,14-16.8,26.3-16.8c3.2,0,6.4,0.5,8.5,0.9
		c1.4,0.3,2.8-0.6,3.1-1.9l2.7-9.9c0.4-1.5-0.6-3-2.1-3.3c-2.7-0.5-7.1-1.2-11.8-1.2c-21.7,0-39.3,13.5-45.8,32.2h-7.4
		c-1.5,0-2.7,1.2-2.7,2.7v6.7c0,1.5,1.2,2.7,2.7,2.7h4.8c-0.2,3-0.3,6.6,0,9.5h-4.8c-1.5,0-2.7,1.2-2.7,2.7v6.3
		c0,1.5,1.2,2.7,2.7,2.7h6.7c5.6,20.2,23.1,34.8,46.4,34.8c5.9,0,10.9-1,13.7-1.7c1.4-0.4,2.2-1.7,2-3.1L1730.7-1991.7z"/>
	<path id="XMLID_384_" class="st3" d="M1819.9-1829.8l-25.8-7.5c-3-0.9-5.1-3.7-5.1-6.8c0-3.9,3.2-7,7-7h15.8c2.9,0,5.8,0.9,8.2,2.5
		c1.5,1,3.4,0.7,4.7-0.5l8.3-8.1c1.7-1.6,1.5-4.4-0.4-5.8c-5.8-4.6-13.2-7.1-20.7-7.2v-11.5c0-2.1-1.7-3.8-3.8-3.8h-7.6
		c-2.1,0-3.8,1.7-3.8,3.8v11.5h-0.6c-15.2,0-27.4,13.1-26,28.6c1,11,9.4,20,20,23.1l24.5,7.2c3,0.9,5.1,3.7,5.1,6.8c0,3.9-3.2,7-7,7
		h-15.8c-2.9,0-5.8-0.9-8.2-2.5c-1.5-1-3.4-0.7-4.7,0.5l-8.3,8.1c-1.7,1.6-1.5,4.4,0.4,5.8c5.8,4.6,13.2,7.1,20.7,7.2v11.5
		c0,2.1,1.7,3.8,3.8,3.8h7.6c2.1,0,3.8-1.7,3.8-3.8v-11.5c11.1-0.2,21.6-6.8,25.2-17.4C1842.3-1810.6,1833.7-1825.7,1819.9-1829.8
		L1819.9-1829.8z"/>
	<path id="XMLID_396_" class="st5" d="M1813.4-1823.3l-25.8-7.5c-3-0.9-5.1-3.7-5.1-6.8c0-3.9,3.2-7,7-7h15.8c2.9,0,5.8,0.9,8.2,2.5
		c1.5,1,3.4,0.7,4.7-0.5l8.3-8.1c1.7-1.6,1.5-4.4-0.4-5.8c-5.8-4.6-13.2-7.1-20.7-7.2v-11.5c0-2.1-1.7-3.8-3.8-3.8h-7.6
		c-2.1,0-3.8,1.7-3.8,3.8v11.5h-0.6c-15.2,0-27.4,13.1-26,28.6c1,11,9.4,20,20,23.1l24.5,7.2c3,0.9,5.1,3.7,5.1,6.8c0,3.9-3.2,7-7,7
		h-15.8c-2.9,0-5.8-0.9-8.2-2.5c-1.5-1-3.4-0.7-4.7,0.5l-8.3,8.1c-1.7,1.6-1.5,4.4,0.4,5.8c5.8,4.6,13.2,7.1,20.7,7.2v11.5
		c0,2.1,1.7,3.8,3.8,3.8h7.6c2.1,0,3.8-1.7,3.8-3.8v-11.5c11.1-0.2,21.6-6.8,25.2-17.4C1835.8-1804.1,1827.2-1819.2,1813.4-1823.3
		L1813.4-1823.3z"/>
	<rect id="XMLID_385_" x="1604.3" y="-2160" class="st3" width="18.7" height="210.3"/>
	<rect id="XMLID_211_" x="1595.8" y="-2161.7" class="st5" width="18.7" height="220.5"/>
	<rect id="XMLID_386_" x="1795" y="-2160" class="st3" width="18.7" height="291.7"/>
	<rect id="XMLID_395_" x="1789.2" y="-2160" class="st5" width="18.7" height="297.4"/>
	<rect id="XMLID_387_" x="1703.3" y="-2160" class="st3" width="18.7" height="84.3"/>
	<rect id="XMLID_330_" x="1697.5" y="-2160" class="st5" width="18.7" height="90.2"/>
</g>
<path id="Bill" class="st3" d="M1816.1-1280.1c-12.1-5.1-24.3-7-36.4-7c-38.5,0-77,19.5-115.5,19.5c-9.7,0-19.3-1.2-29-4.3
	c-1.1-0.3-2.2-0.5-3.2-0.5c-5.4,0-10.1,4.2-10.1,9.9v99.1c0,3.9,2.3,7.7,5.9,9.2c12.1,5.1,24.3,7,36.4,7c38.5,0,77-19.5,115.5-19.5
	c9.7,0,19.3,1.2,29,4.3c1.1,0.3,2.2,0.5,3.2,0.5c5.4,0,10.1-4.2,10.1-9.9v-99.1C1822-1274.8,1819.7-1278.6,1816.1-1280.1
	L1816.1-1280.1z M1637-1255.8c6.3,1.6,12.8,2.4,19.6,2.8c-1.8,9.2-9.9,16.1-19.6,16.1V-1255.8z M1637-1166.7v-14.9
	c10.7,0,19.4,8.5,19.9,19.2C1649.9-1163,1643.3-1164.4,1637-1166.7z M1722-1187.1c-13.8,0-25-13.4-25-30c0-16.6,11.2-30,25-30
	s25,13.4,25,30C1747-1200.5,1735.8-1187.1,1722-1187.1z M1807-1178.4c-5.5-1.4-11.2-2.1-17-2.6c1.8-8.1,8.6-14.3,17-15.4V-1178.4z
	 M1807-1252.2c-9.7-1.2-17.1-9.3-17.4-19.2c6.1,0.7,11.9,1.9,17.4,4V-1252.2z"/>
<path id="XMLID_1_" class="st2" d="M722-1162.3c0.3,0.1,0.6,0.1,0.9,0.2c0.9,0.3,1.8,0.8,2.6,1.3c6.3,3.8,12.7,7.5,18.9,11.5
	c16.6,10.5,32.5,22.3,47,35.5c16.1,14.7,31.2,31.7,40.5,51.6c9.1,19.5,11.1,41.2,2.9,61.4c-11.9,29.1-39.6,49.5-65.9,64.8
	c-15.1,8.8-32.2,20.2-49.7,22.7c-18.5,2.7-38,0.3-56.6,0.3c-18.7,0-37.4,0-56.2,0.2c-32.5,0.3-65,0.9-97.4,3.2
	c-27.2,1.9-54.4,5-81.2,10.7c-23.8,5.1-47.2,12.4-69.3,22.6c-22.2,10.3-42.9,23.5-61.9,38.9c-21.7,17.7-41.1,38.1-58.9,59.7
	c-22.1,26.8-41.8,55.5-60.3,84.9c-6.8,10.8-13.5,21.7-20,32.7C0.5-396.2,0-622.4,0-622.4s0-540,0-540c0.7,0,1.4,0,2.2,0
	c2.1,0,4.2,0,6.3,0c3.4,0,6.8,0,10.1,0c4.6,0,9.1,0,13.7,0c5.7,0,11.3,0,17,0c6.7,0,13.3,0,20,0c7.6,0,15.1,0,22.7,0
	c8.4,0,16.8,0,25.2,0c9.1,0,18.2,0,27.3,0c9.7,0,19.5,0,29.2,0c10.3,0,20.5,0,30.8,0c10.7,0,21.4,0,32.1,0c11,0,22.1,0,33.1,0
	c11.3,0,22.6,0,33.9,0c11.5,0,22.9,0,34.4,0c11.5,0,23,0,34.5,0c11.5,0,23,0,34.4,0c11.4,0,22.7,0,34.1,0c11.1,0,22.3,0,33.4,0
	c10.8,0,21.7,0,32.5,0c10.4,0,20.8,0,31.3,0c9.9,0,19.8,0,29.8,0c9.3,0,18.7,0,28,0c8.6,0,17.3,0,25.9,0c7.9,0,15.7,0,23.6,0
	c7,0,14,0,20.9,0c6,0,12,0,18,0c5,0,9.9,0,14.9,0c6.7,0,13.3,0,20,0C720.1-1162.5,721.1-1162.5,722-1162.3z"/>
<path id="XMLID_192_" class="st6" d="M874.1-1080c0,90-73,162.9-162.9,162.9S548.2-990,548.2-1080c0-60,32.5-112.4,80.8-140.7
	c1.8-1.1,14.2,5,16.6,5.8c5.8,2,11.7,4,17.5,5.9c11.9,4,23.8,7.8,35.8,11.5c24.7,7.7,49.5,14.9,74.5,21.7
	c14.4,3.9,28.7,7.7,43.2,11.3c6.3,1.6,12.4,3.5,18.8,4.7c5.7,1.1,12.5,0.4,17.5,3.8c2.5,1.7,4.2,4.3,5.7,6.9
	C869.9-1129,874.1-1102.9,874.1-1080z"/>
<linearGradient id="XMLID_268_" gradientUnits="userSpaceOnUse" x1="1603.4485" y1="346.1535" x2="335.4485" y2="728.1536">
	<stop  offset="8.271665e-007" style="stop-color:#FDBA33;stop-opacity:0.8"/>
	<stop  offset="0.4678" style="stop-color:#F9A127;stop-opacity:0.8936"/>
	<stop  offset="1" style="stop-color:#F6881F"/>
</linearGradient>
<rect id="XMLID_266_" class="st7" width="1920" height="1080"/>
</svg>
