<?xml version="1.0" encoding="utf-8"?>
<!-- Generator: Adobe Illustrator 19.0.0, SVG Export Plug-In . SVG Version: 6.00 Build 0)  -->
<svg version="1.1" id="Layer_1" xmlns="http://www.w3.org/2000/svg" xmlns:xlink="http://www.w3.org/1999/xlink" x="0px" y="0px"
	 viewBox="0 0 1920 2652" style="enable-background:new 0 0 1920 2652;" xml:space="preserve">
<style type="text/css">
	.st0{fill:url(#Background_2_);}
	.st1{fill:url(#Background_3_);}
	.st2{fill:#547DBF;}
	.st3{fill:#010101;}
	.st4{opacity:0.53;fill:#010101;}
	.st5{opacity:0.6;fill:#010101;}
	.st6{fill:#547EBF;}
	.st7{fill:url(#XMLID_37_);}
	.st8{fill:url(#XMLID_38_);}
</style>
<linearGradient id="Background_2_" gradientUnits="userSpaceOnUse" x1="-1165.5944" y1="17.9642" x2="-2973.5945" y2="985.9642">
	<stop  offset="8.271665e-007" style="stop-color:#FDBA33;stop-opacity:0.8"/>
	<stop  offset="0.4678" style="stop-color:#F9A127;stop-opacity:0.8936"/>
	<stop  offset="1" style="stop-color:#F6881F"/>
</linearGradient>
<rect id="Background" x="-3039" y="-33" class="st0" width="1920" height="1080"/>
<linearGradient id="Background_3_" gradientUnits="userSpaceOnUse" x1="-1188.1743" y1="2051.9971" x2="-2962.1743" y2="1125.9969">
	<stop  offset="8.271665e-007" style="stop-color:#FDBA33;stop-opacity:0.8"/>
	<stop  offset="0.4678" style="stop-color:#F9A127;stop-opacity:0.8936"/>
	<stop  offset="1" style="stop-color:#F6881F"/>
</linearGradient>
<rect id="Background_1_" x="-3039" y="1047" class="st1" width="1920" height="1080"/>
<path id="XMLID_194_" class="st2" d="M-2183.2,972c11.7,22.4,18.3,47.9,18.3,75H-3039V-33h1393c-691.8,40.1-1221.6,266.6-1221.6,540
	c0,157.6,176,299.6,457.6,399.3C-2340.5,930.9-2264.5,953-2183.2,972z"/>
<g id="Hanging">
	<path id="XMLID_359_" class="st3" d="M-1393,239.8h-10.6c-1.5,0-2.8,1.2-2.8,2.7v11.2h-28.6v-28h19.6c1.5,0,2.8-1.2,2.8-2.7v-8.8
		c0-1.5-1.3-2.7-2.8-2.7h-19.6v-14c0-7.1,5.7-12.6,14.4-12.6c5.5,0,10.7,2.5,13.5,4.2c1.2,0.7,2.8,0.5,3.7-0.6l6.7-7.8
		c1-1.2,0.8-2.9-0.5-3.8c-3.8-2.7-12.4-7.7-23.7-7.7c-19.1,0-32.7,11.7-32.7,27.8v14.6h-6.5c-1.5,0-2.8,1.2-2.8,2.7v8.8
		c0,1.5,1.3,2.7,2.8,2.7h6.5v28.3h-8.4c-1.5,0-2.8,1.2-2.8,2.7v8.8c0,1.5,1.3,2.7,2.8,2.7h69.1c1.5,0,2.8-1.2,2.8-2.7v-23
		C-1390.2,240.9-1391.5,239.8-1393,239.8z"/>
	<path id="XMLID_177_" class="st4" d="M-1399.7,246.4h-10.6c-1.5,0-2.8,1.2-2.8,2.7v11.2h-28.6v-28h19.6c1.5,0,2.8-1.2,2.8-2.7v-8.8
		c0-1.5-1.3-2.7-2.8-2.7h-19.6v-14c0-7.1,5.7-12.6,14.4-12.6c5.5,0,10.7,2.5,13.5,4.2c1.2,0.7,2.8,0.5,3.7-0.6l6.7-7.8
		c1-1.2,0.8-2.9-0.5-3.8c-3.8-2.7-12.4-7.7-23.7-7.7c-19.1,0-32.7,11.7-32.7,27.8v14.6h-6.5c-1.5,0-2.8,1.2-2.8,2.7v8.8
		c0,1.5,1.3,2.7,2.8,2.7h6.5v28.3h-8.4c-1.5,0-2.8,1.2-2.8,2.7v8.8c0,1.5,1.3,2.7,2.8,2.7h69.1c1.5,0,2.8-1.2,2.8-2.7v-23
		C-1396.9,247.6-1398.2,246.4-1399.7,246.4z"/>
	<path id="XMLID_383_" class="st3" d="M-1301.9,128.9c-0.3-1.5-1.8-2.4-3.2-2.1c-2.4,0.5-6.1,1.2-10.2,1.2
		c-12.7,0-22.8-7.8-27.2-19.1h25.4c1.3,0,2.3-0.9,2.6-2.1l1.4-6.3c0.4-1.7-0.9-3.3-2.6-3.3h-30c-0.3-3.2-0.3-6.3,0-9.5h32.8
		c1.3,0,2.4-0.9,2.6-2.1l1.5-6.7c0.4-1.7-0.9-3.3-2.6-3.3h-30.9c4.6-10.1,14-16.8,26.3-16.8c3.2,0,6.4,0.5,8.5,0.9
		c1.4,0.3,2.8-0.6,3.1-1.9l2.7-9.9c0.4-1.5-0.6-3-2.1-3.3c-2.7-0.5-7.1-1.2-11.8-1.2c-21.7,0-39.3,13.5-45.8,32.2h-7.4
		c-1.5,0-2.7,1.2-2.7,2.7V85c0,1.5,1.2,2.7,2.7,2.7h4.8c-0.2,3-0.3,6.6,0,9.5h-4.8c-1.5,0-2.7,1.2-2.7,2.7v6.3
		c0,1.5,1.2,2.7,2.7,2.7h6.7c5.6,20.2,23.1,34.8,46.4,34.8c5.9,0,10.9-1,13.7-1.7c1.4-0.4,2.2-1.7,2-3.1L-1301.9,128.9z"/>
	<path id="XMLID_394_" class="st5" d="M-1308.3,135.3c-0.3-1.5-1.8-2.4-3.2-2.1c-2.4,0.5-6.1,1.2-10.2,1.2
		c-12.7,0-22.8-7.8-27.2-19.1h25.4c1.3,0,2.3-0.9,2.6-2.1l1.4-6.3c0.4-1.7-0.9-3.3-2.6-3.3h-30c-0.3-3.2-0.3-6.3,0-9.5h32.8
		c1.3,0,2.4-0.9,2.6-2.1l1.5-6.7c0.4-1.7-0.9-3.3-2.6-3.3h-30.9c4.6-10.1,14-16.8,26.3-16.8c3.2,0,6.4,0.5,8.5,0.9
		c1.4,0.3,2.8-0.6,3.1-1.9l2.7-9.9c0.4-1.5-0.6-3-2.1-3.3c-2.7-0.5-7.1-1.2-11.8-1.2c-21.7,0-39.3,13.5-45.8,32.2h-7.4
		c-1.5,0-2.7,1.2-2.7,2.7v6.7c0,1.5,1.2,2.7,2.7,2.7h4.8c-0.2,3-0.3,6.6,0,9.5h-4.8c-1.5,0-2.7,1.2-2.7,2.7v6.3
		c0,1.5,1.2,2.7,2.7,2.7h6.7c5.6,20.2,23.1,34.8,46.4,34.8c5.9,0,10.9-1,13.7-1.7c1.4-0.4,2.2-1.7,2-3.1L-1308.3,135.3z"/>
	<path id="XMLID_384_" class="st3" d="M-1219.1,297.2l-25.8-7.5c-3-0.9-5.1-3.7-5.1-6.8c0-3.9,3.2-7,7-7h15.8c2.9,0,5.8,0.9,8.2,2.5
		c1.5,1,3.4,0.7,4.7-0.5l8.3-8.1c1.7-1.6,1.5-4.4-0.4-5.8c-5.8-4.6-13.2-7.1-20.7-7.2v-11.5c0-2.1-1.7-3.8-3.8-3.8h-7.6
		c-2.1,0-3.8,1.7-3.8,3.8v11.5h-0.6c-15.2,0-27.4,13.1-26,28.6c1,11,9.4,20,20,23.1l24.5,7.2c3,0.9,5.1,3.7,5.1,6.8c0,3.9-3.2,7-7,7
		h-15.8c-2.9,0-5.8-0.9-8.2-2.5c-1.5-1-3.4-0.7-4.7,0.5l-8.3,8.1c-1.7,1.6-1.5,4.4,0.4,5.8c5.8,4.6,13.2,7.1,20.7,7.2v11.5
		c0,2.1,1.7,3.8,3.8,3.8h7.6c2.1,0,3.8-1.7,3.8-3.8v-11.5c11.1-0.2,21.6-6.8,25.2-17.4C-1196.7,316.4-1205.3,301.3-1219.1,297.2
		L-1219.1,297.2z"/>
	<path id="XMLID_396_" class="st5" d="M-1225.6,303.7l-25.8-7.5c-3-0.9-5.1-3.7-5.1-6.8c0-3.9,3.2-7,7-7h15.8c2.9,0,5.8,0.9,8.2,2.5
		c1.5,1,3.4,0.7,4.7-0.5l8.3-8.1c1.7-1.6,1.5-4.4-0.4-5.8c-5.8-4.6-13.2-7.1-20.7-7.2v-11.5c0-2.1-1.7-3.8-3.8-3.8h-7.6
		c-2.1,0-3.8,1.7-3.8,3.8v11.5h-0.6c-15.2,0-27.4,13.1-26,28.6c1,11,9.4,20,20,23.1l24.5,7.2c3,0.9,5.1,3.7,5.1,6.8c0,3.9-3.2,7-7,7
		h-15.8c-2.9,0-5.8-0.9-8.2-2.5c-1.5-1-3.4-0.7-4.7,0.5l-8.3,8.1c-1.7,1.6-1.5,4.4,0.4,5.8c5.8,4.6,13.2,7.1,20.7,7.2v11.5
		c0,2.1,1.7,3.8,3.8,3.8h7.6c2.1,0,3.8-1.7,3.8-3.8v-11.5c11.1-0.2,21.6-6.8,25.2-17.4C-1203.2,322.9-1211.8,307.8-1225.6,303.7
		L-1225.6,303.7z"/>
	<rect id="XMLID_385_" x="-1434.7" y="-33" class="st3" width="18.7" height="210.3"/>
	<rect id="XMLID_211_" x="-1443.2" y="-34.7" class="st5" width="18.7" height="220.5"/>
	<rect id="XMLID_386_" x="-1244" y="-33" class="st3" width="18.7" height="291.7"/>
	<rect id="XMLID_395_" x="-1249.8" y="-33" class="st5" width="18.7" height="297.4"/>
	<rect id="XMLID_387_" x="-1335.7" y="-33" class="st3" width="18.7" height="84.3"/>
	<rect id="XMLID_330_" x="-1341.5" y="-33" class="st5" width="18.7" height="90.2"/>
</g>
<path id="XMLID_1_" class="st2" d="M-2317,964.7c0.3,0.1,0.6,0.1,0.9,0.2c0.9,0.3,1.8,0.8,2.6,1.3c6.3,3.8,12.7,7.5,18.9,11.5
	c16.6,10.5,32.5,22.3,47,35.5c16.1,14.7,31.2,31.7,40.5,51.6c9.1,19.5,11.1,41.2,2.9,61.4c-11.9,29.1-39.6,49.5-65.9,64.8
	c-15.1,8.8-32.2,20.2-49.7,22.7c-18.5,2.7-38,0.3-56.6,0.3c-18.7,0-37.4,0-56.2,0.2c-32.5,0.3-65,0.9-97.4,3.2
	c-27.2,1.9-54.4,5-81.2,10.7c-23.8,5.1-47.2,12.4-69.3,22.6c-22.2,10.3-42.9,23.5-61.9,38.9c-21.7,17.7-41.1,38.1-58.9,59.7
	c-22.1,26.8-41.8,55.5-60.3,84.9c-6.8,10.8-13.5,21.7-20,32.7c-156.9,263.9-157.4,37.7-157.4,37.7v-540c0.7,0,1.4,0,2.2,0
	c2.1,0,4.2,0,6.3,0c3.4,0,6.8,0,10.1,0c4.6,0,9.1,0,13.7,0c5.7,0,11.3,0,17,0c6.7,0,13.3,0,20,0c7.6,0,15.1,0,22.7,0
	c8.4,0,16.8,0,25.2,0c9.1,0,18.2,0,27.3,0c9.7,0,19.5,0,29.2,0c10.3,0,20.5,0,30.8,0c10.7,0,21.4,0,32.1,0c11,0,22.1,0,33.1,0
	c11.3,0,22.6,0,33.9,0c11.5,0,22.9,0,34.4,0c11.5,0,23,0,34.5,0c11.5,0,23,0,34.4,0c11.4,0,22.7,0,34.1,0c11.1,0,22.3,0,33.4,0
	c10.8,0,21.7,0,32.5,0c10.4,0,20.8,0,31.3,0c9.9,0,19.8,0,29.8,0c9.3,0,18.7,0,28,0c8.6,0,17.3,0,25.9,0c7.9,0,15.7,0,23.6,0
	c7,0,14,0,20.9,0c6,0,12,0,18,0c5,0,9.9,0,14.9,0c6.7,0,13.3,0,20,0C-2318.9,964.5-2317.9,964.5-2317,964.7z"/>
<path id="XMLID_192_" class="st6" d="M-2164.9,1047c0,90-73,162.9-162.9,162.9c-90,0-162.9-72.9-162.9-162.9
	c0-60,32.4-112.5,80.8-140.7c1.8-1.1,14.2,5,16.6,5.8c5.8,2,11.7,4,17.5,5.9c11.9,4,23.8,7.8,35.8,11.5
	c24.7,7.7,49.5,14.9,74.5,21.7c14.4,3.9,28.7,7.7,43.2,11.3c6.3,1.6,12.4,3.5,18.8,4.7c5.7,1.1,12.5,0.4,17.5,3.8
	c2.5,1.7,4.2,4.3,5.7,6.9C-2169.1,998-2164.9,1024.1-2164.9,1047z"/>
<linearGradient id="XMLID_37_" gradientUnits="userSpaceOnUse" x1="-1435.5515" y1="2473.1536" x2="-2703.5515" y2="2855.1536">
	<stop  offset="8.271665e-007" style="stop-color:#FDBA33;stop-opacity:0.8"/>
	<stop  offset="0.4678" style="stop-color:#F9A127;stop-opacity:0.8936"/>
	<stop  offset="1" style="stop-color:#F6881F"/>
</linearGradient>
<rect id="XMLID_266_" x="-3039" y="2127" class="st7" width="1920" height="1080"/>
<linearGradient id="XMLID_38_" gradientUnits="userSpaceOnUse" x1="2257.8948" y1="631.1094" x2="-337.8949" y2="2020.8906">
	<stop  offset="8.271665e-007" style="stop-color:#FDBA33;stop-opacity:0.8"/>
	<stop  offset="0.4678" style="stop-color:#F9A127;stop-opacity:0.8936"/>
	<stop  offset="1" style="stop-color:#F6881F"/>
</linearGradient>
<rect id="XMLID_551_" class="st8" width="1920" height="2652"/>
<g id="Hanging_1_">
	<path id="XMLID_450_" class="st3" d="M1658.9,272.9h-10.6c-1.5,0-2.8,1.2-2.8,2.7v11.2h-28.6v-28h19.6c1.5,0,2.8-1.2,2.8-2.7v-8.8
		c0-1.5-1.3-2.7-2.8-2.7h-19.6v-14c0-7.1,5.7-12.6,14.4-12.6c5.5,0,10.7,2.5,13.5,4.2c1.2,0.7,2.8,0.5,3.7-0.6l6.7-7.8
		c1-1.2,0.8-2.9-0.5-3.8c-3.8-2.7-12.4-7.7-23.7-7.7c-19.1,0-32.7,11.7-32.7,27.8v14.6h-6.5c-1.5,0-2.8,1.2-2.8,2.7v8.8
		c0,1.5,1.3,2.7,2.8,2.7h6.5v28.3h-8.4c-1.5,0-2.8,1.2-2.8,2.7v8.8c0,1.5,1.3,2.7,2.8,2.7h69.1c1.5,0,2.8-1.2,2.8-2.7v-23
		C1661.7,274.1,1660.5,272.9,1658.9,272.9z"/>
	<path id="XMLID_449_" class="st4" d="M1652.2,279.6h-10.6c-1.5,0-2.8,1.2-2.8,2.7v11.2h-28.6v-28h19.6c1.5,0,2.8-1.2,2.8-2.7V254
		c0-1.5-1.3-2.7-2.8-2.7h-19.6v-14c0-7.1,5.7-12.6,14.4-12.6c5.5,0,10.7,2.5,13.5,4.2c1.2,0.7,2.8,0.5,3.7-0.6l6.7-7.8
		c1-1.2,0.8-2.9-0.5-3.8c-3.8-2.7-12.4-7.7-23.7-7.7c-19.1,0-32.7,11.7-32.7,27.8v14.6h-6.5c-1.5,0-2.8,1.2-2.8,2.7v8.8
		c0,1.5,1.3,2.7,2.8,2.7h6.5v28.3h-8.4c-1.5,0-2.8,1.2-2.8,2.7v8.8c0,1.5,1.3,2.7,2.8,2.7h69.1c1.5,0,2.8-1.2,2.8-2.7v-23
		C1655,280.8,1653.8,279.6,1652.2,279.6z"/>
	<path id="XMLID_448_" class="st3" d="M1750,162c-0.3-1.5-1.8-2.4-3.2-2.1c-2.4,0.5-6.1,1.2-10.2,1.2c-12.7,0-22.8-7.8-27.2-19.1
		h25.4c1.3,0,2.3-0.9,2.6-2.1l1.4-6.3c0.4-1.7-0.9-3.3-2.6-3.3h-30c-0.3-3.2-0.3-6.3,0-9.5h32.8c1.3,0,2.4-0.9,2.6-2.1l1.5-6.7
		c0.4-1.7-0.9-3.3-2.6-3.3h-30.9c4.6-10.1,14-16.8,26.3-16.8c3.2,0,6.4,0.5,8.5,0.9c1.4,0.3,2.8-0.6,3.1-1.9l2.7-9.9
		c0.4-1.5-0.6-3-2.1-3.3c-2.7-0.5-7.1-1.2-11.8-1.2c-21.7,0-39.3,13.5-45.8,32.2h-7.4c-1.5,0-2.7,1.2-2.7,2.7v6.7
		c0,1.5,1.2,2.7,2.7,2.7h4.8c-0.2,3-0.3,6.6,0,9.5h-4.8c-1.5,0-2.7,1.2-2.7,2.7v6.3c0,1.5,1.2,2.7,2.7,2.7h6.7
		c5.6,20.2,23.1,34.8,46.4,34.8c5.9,0,10.9-1,13.7-1.7c1.4-0.4,2.2-1.7,2-3.1L1750,162z"/>
	<path id="XMLID_447_" class="st5" d="M1743.6,168.5c-0.3-1.5-1.8-2.4-3.2-2.1c-2.4,0.5-6.1,1.2-10.2,1.2
		c-12.7,0-22.8-7.8-27.2-19.1h25.4c1.3,0,2.3-0.9,2.6-2.1l1.4-6.3c0.4-1.7-0.9-3.3-2.6-3.3h-30c-0.3-3.2-0.3-6.3,0-9.5h32.8
		c1.3,0,2.4-0.9,2.6-2.1l1.5-6.7c0.4-1.7-0.9-3.3-2.6-3.3h-30.9c4.6-10.1,14-16.8,26.3-16.8c3.2,0,6.4,0.5,8.5,0.9
		c1.4,0.3,2.8-0.6,3.1-1.9l2.7-9.9c0.4-1.5-0.6-3-2.1-3.3c-2.7-0.5-7.1-1.2-11.8-1.2c-21.7,0-39.3,13.5-45.8,32.2h-7.4
		c-1.5,0-2.7,1.2-2.7,2.7v6.7c0,1.5,1.2,2.7,2.7,2.7h4.8c-0.2,3-0.3,6.6,0,9.5h-4.8c-1.5,0-2.7,1.2-2.7,2.7v6.3
		c0,1.5,1.2,2.7,2.7,2.7h6.7c5.6,20.2,23.1,34.8,46.4,34.8c5.9,0,10.9-1,13.7-1.7c1.4-0.4,2.2-1.7,2-3.1L1743.6,168.5z"/>
	<path id="XMLID_446_" class="st3" d="M1832.8,330.4l-25.8-7.5c-3-0.9-5.1-3.7-5.1-6.8c0-3.9,3.2-7,7-7h15.8c2.9,0,5.8,0.9,8.2,2.5
		c1.5,1,3.4,0.7,4.7-0.5l8.3-8.1c1.7-1.6,1.5-4.4-0.4-5.8c-5.8-4.6-13.2-7.1-20.7-7.2v-11.5c0-2.1-1.7-3.8-3.8-3.8h-7.6
		c-2.1,0-3.8,1.7-3.8,3.8V290h-0.6c-15.2,0-27.4,13.1-26,28.6c1,11,9.4,20,20,23.1l24.5,7.2c3,0.9,5.1,3.7,5.1,6.8c0,3.9-3.2,7-7,7
		h-15.8c-2.9,0-5.8-0.9-8.2-2.5c-1.5-1-3.4-0.7-4.7,0.5l-8.3,8.1c-1.7,1.6-1.5,4.4,0.4,5.8c5.8,4.6,13.2,7.1,20.7,7.2v11.5
		c0,2.1,1.7,3.8,3.8,3.8h7.6c2.1,0,3.8-1.7,3.8-3.8v-11.5c11.1-0.2,21.6-6.8,25.2-17.4C1855.3,349.5,1846.7,334.4,1832.8,330.4
		L1832.8,330.4z"/>
	<path id="XMLID_445_" class="st5" d="M1826.3,336.9l-25.8-7.5c-3-0.9-5.1-3.7-5.1-6.8c0-3.9,3.2-7,7-7h15.8c2.9,0,5.8,0.9,8.2,2.5
		c1.5,1,3.4,0.7,4.7-0.5l8.3-8.1c1.7-1.6,1.5-4.4-0.4-5.8c-5.8-4.6-13.2-7.1-20.7-7.2V285c0-2.1-1.7-3.8-3.8-3.8h-7.6
		c-2.1,0-3.8,1.7-3.8,3.8v11.5h-0.6c-15.2,0-27.4,13.1-26,28.6c1,11,9.4,20,20,23.1l24.5,7.2c3,0.9,5.1,3.7,5.1,6.8c0,3.9-3.2,7-7,7
		h-15.8c-2.9,0-5.8-0.9-8.2-2.5c-1.5-1-3.4-0.7-4.7,0.5l-8.3,8.1c-1.7,1.6-1.5,4.4,0.4,5.8c5.8,4.6,13.2,7.1,20.7,7.2v11.5
		c0,2.1,1.7,3.8,3.8,3.8h7.6c2.1,0,3.8-1.7,3.8-3.8v-11.5c11.1-0.2,21.6-6.8,25.2-17.4C1848.8,356,1840.2,340.9,1826.3,336.9
		L1826.3,336.9z"/>
	<rect id="XMLID_444_" x="1617.3" y="0.2" class="st3" width="18.7" height="210.3"/>
	<rect id="XMLID_443_" x="1608.7" y="-1.5" class="st5" width="18.7" height="220.5"/>
	<rect id="XMLID_442_" x="1807.9" y="0.2" class="st3" width="18.7" height="291.7"/>
	<rect id="XMLID_441_" x="1802.2" y="0.2" class="st5" width="18.7" height="297.4"/>
	<rect id="XMLID_440_" x="1716.3" y="0.2" class="st3" width="18.7" height="84.3"/>
	<rect id="XMLID_439_" x="1710.5" y="0.2" class="st5" width="18.7" height="90.2"/>
</g>
<path id="XMLID_10_" class="st2" d="M874.1,1078.5H0V-1.5h1393C701.2,38.6,171.3,265.1,171.3,538.5c0,157.6,176,299.6,457.6,399.3
	C698.5,962.4,874.1,1051.5,874.1,1078.5z"/>
<path id="XMLID_505_" class="st2" d="M722,1058.2c0.3,0.1,0.6,0.1,0.9,0.2c0.9,0.3,1.8,0.8,2.6,1.3c6.3,3.8,12.7,7.5,18.9,11.5
	c16.6,10.5,32.5,22.3,47,35.5c16.1,14.7,31.2,31.7,40.5,51.6c9.1,19.5,11.1,41.2,2.9,61.4c-11.9,29.1-39.6,49.5-65.9,64.8
	c-15.1,8.8-32.2,20.2-49.7,22.7c-18.5,2.7-38,0.3-56.6,0.3c-18.7,0-37.4,0-56.2,0.2c-32.5,0.3-65,0.9-97.4,3.2
	c-27.2,1.9-54.4,5-81.2,10.7c-23.8,5.1-47.2,12.4-69.3,22.6c-22.2,10.3-42.9,23.5-61.9,38.9c-21.7,17.7-41.1,38.1-58.9,59.7
	c-22.1,26.8-41.8,55.5-60.3,84.9c-6.8,10.8-13.5,21.7-20,32.7C0.5,1824.3,0,1598.1,0,1598.1l0-540c0.7,0,1.4,0,2.2,0
	c2.1,0,4.2,0,6.3,0c3.4,0,6.8,0,10.1,0c4.6,0,9.1,0,13.7,0c5.7,0,11.3,0,17,0c6.7,0,13.3,0,20,0c7.6,0,15.1,0,22.7,0
	c8.4,0,16.8,0,25.2,0c9.1,0,18.2,0,27.3,0c9.7,0,19.5,0,29.2,0c10.3,0,20.5,0,30.8,0c10.7,0,21.4,0,32.1,0c11,0,22.1,0,33.1,0
	c11.3,0,22.6,0,33.9,0c11.5,0,22.9,0,34.4,0c11.5,0,23,0,34.5,0c11.5,0,23,0,34.4,0c11.4,0,22.7,0,34.1,0c11.1,0,22.3,0,33.4,0
	c10.8,0,21.7,0,32.5,0c10.4,0,20.8,0,31.3,0c9.9,0,19.8,0,29.8,0c9.3,0,18.7,0,28,0c8.6,0,17.3,0,25.9,0c7.9,0,15.7,0,23.6,0
	c7,0,14,0,20.9,0c6,0,12,0,18,0c5,0,9.9,0,14.9,0c6.7,0,13.3,0,20,0C720.1,1058,721.1,1058,722,1058.2z"/>
<path id="XMLID_532_" class="st6" d="M877.8,1112.1c0,109.6-73,198.5-162.9,198.5s-162.9-88.9-162.9-198.5
	c0-73.1,32.5-137,80.8-171.4c1.8-1.3,14.2,6,16.6,7c5.8,2.4,11.7,4.8,17.5,7.2c11.9,4.8,23.8,9.5,35.8,14
	c24.7,9.4,49.5,18.1,74.5,26.4c14.4,4.8,28.7,9.3,43.2,13.7C887,1042,877.8,1084.2,877.8,1112.1z"/>
<g id="XMLID_29_">
	<path id="XMLID_31_" class="st6" d="M1725.7,2122.3c9,10.6,23.3,13.7,33.6,7.6l-13.4-16.7
		C1738.7,2115.3,1732.1,2118.3,1725.7,2122.3z"/>
	<path id="XMLID_32_" class="st6" d="M1682.6,2200.8c-13.2,10.6-12.1,33.9,2.5,51.9c14.6,18.1,37,24.1,50.2,13.5
		c13.2-10.6,12.1-33.9-2.5-51.9C1718.2,2196.2,1695.7,2190.2,1682.6,2200.8z"/>
	<path id="XMLID_33_" class="st6" d="M1658.9,2337.6l13.1,16.3c8-2.3,15.5-5.9,22.7-10.7C1685,2331.9,1669.2,2329.3,1658.9,2337.6z"
		/>
	<path id="XMLID_34_" class="st6" d="M1805.5,2220.5c6-3.9,12.1-7.5,18.5-10.2l-15.9-19.7
		C1801.1,2198.3,1800.1,2210.2,1805.5,2220.5z"/>
	<path id="XMLID_35_" class="st6" d="M1593.8,2256.7l16.6,20.6c9.2-7.5,10.9-21.2,4.6-32.6
		C1608.1,2249.4,1601.2,2253.6,1593.8,2256.7z"/>
	<path id="XMLID_44_" class="st6" d="M1774,1903c-181.8,0-336.3,122.2-392.9,292.5c-71.1,6.3-127.1,73.5-127.1,155.5
		c0,22.5,4.2,43.9,11.8,63.2c-88.5,44.2-147.8,125.6-147.8,218.8c0,11.5,0.9,22.9,2.7,34H1920v-736.4
		C1874.6,1912.8,1825.4,1903,1774,1903z M1843.4,2224.7c-1,0.8-2.2,1.5-3.5,1.9c-11.9,4.1-22.2,10.2-31.4,17.6
		c-36.7,29.6-56.4,80.5-93.1,110.1c-11.6,9.3-24.9,16.5-40.9,20.3c-4.8,1.1-10.2-1.2-13.7-5.5l-87.1-108.1
		c-5.1-6.3-4.2-14.5,0.9-18.6c1-0.8,2.2-1.5,3.5-1.9c11.9-4.1,22.2-10.2,31.4-17.6c36.7-29.6,56.4-80.5,93.1-110.1
		c11.6-9.3,24.9-16.5,40.9-20.3l0,0c4.8-1.1,10.2,1.2,13.7,5.5l87.1,108.1C1849.3,2212.4,1848.5,2220.5,1843.4,2224.7z"/>
</g>
</svg>
